<svg width="51" height="51" viewBox="0 0 51 51" fill="none" xmlns="http://www.w3.org/2000/svg">
<g clip-path="url(#clip0_158_101)">
<path d="M39.2628 26.3389L26.2628 32.3389C25.6628 32.6389 25.0628 32.6389 24.4628 32.3389L11.3628 26.3389V38.7389C11.3628 42.4389 17.5628 45.3389 25.2628 45.3389C32.9628 45.3389 39.1628 42.3389 39.1628 38.7389V26.3389H39.2628Z" fill="#59B4D9"/>
<path d="M44.2628 27.9389C43.7628 25.4389 42.1628 23.4389 39.7628 22.4389L27.8628 17.4389C27.5628 15.9389 22.7628 16.0389 22.7628 17.6389C22.7628 18.6389 24.7628 19.1389 26.3628 18.8389L39.0628 24.2389C40.7628 24.9389 41.9628 26.4389 42.3628 28.2389C41.8628 28.5389 41.5628 29.1389 41.5628 29.7389V35.0389C41.5628 36.0389 42.3628 36.9389 43.4628 36.9389C44.5628 36.9389 45.3628 36.1389 45.3628 35.0389V29.7389C45.3628 28.9389 44.9628 28.2389 44.2628 27.9389Z" fill="#59B4D9"/>
<path d="M49.2628 17.6389L26.1628 7.0389C25.5628 6.7389 24.9628 6.7389 24.3628 7.0389L1.46276 17.6389C0.662762 18.0389 0.662762 19.1389 1.46276 19.5389L24.5628 30.1389C25.1628 30.4389 25.7628 30.4389 26.3628 30.1389L37.5628 24.9389L26.7628 20.1389C26.3628 20.2389 25.8628 20.2389 25.3628 20.2389C22.2628 20.2389 19.8628 19.0389 19.8628 17.6389C19.8628 16.2389 22.3628 15.0389 25.3628 15.0389C28.3628 15.0389 30.9628 15.9389 31.0628 17.2389L42.9628 22.3389L49.2628 19.4389C50.0628 19.1389 50.0628 18.0389 49.2628 17.6389Z" fill="#59B4D9"/>
</g>
<defs>
<clipPath id="clip0_158_101">
<rect width="50" height="50" fill="white" transform="translate(0.362762 0.838928)"/>
</clipPath>
</defs>
</svg>
